<?xml version="1.0" encoding="iso-8859-1"?>
<!-- Generator: Adobe Illustrator 16.0.0, SVG Export Plug-In . SVG Version: 6.00 Build 0)  -->
<!DOCTYPE svg PUBLIC "-//W3C//DTD SVG 1.1//EN" "http://www.w3.org/Graphics/SVG/1.1/DTD/svg11.dtd">
<svg version="1.1" id="Capa_1" xmlns="http://www.w3.org/2000/svg" xmlns:xlink="http://www.w3.org/1999/xlink" x="0px" y="0px"
	 width="234.287px" height="234.288px" viewBox="0 0 234.287 234.288" style="enable-background:new 0 0 234.287 234.288;"
	 xml:space="preserve">
<g>
	<g id="_x38_2_22_">
		<g>
			<path d="M173.832,0H26.931v234.288h180.426V32.504L173.832,0z M191.757,218.683H42.53V15.6h123.269v24.75h25.958V218.683z"/>
			<path d="M112.609,142.021c7.754,0.416,13.348-6.592,13.734-13.73c-0.422-7.78-5.964-13.317-13.734-13.734
				c-7.751-0.417-13.342,6.593-13.728,13.734C98.467,136.039,105.47,141.635,112.609,142.021z"/>
			<path d="M98.86,86.722H77.053v5.799h-8.777v0.894v5.284v58.333v6.139v0.041h14.559c0.063,0,0.125,0,0.183,0h79.506h6.845v-6.18
				V98.698v-5.243v-0.934H98.855v-5.799H98.86z M143.06,102.598c0.594-2.163,2.569-2.277,4.402-2.277c2.204,0,4.407,0,6.611,0
				c1.442,0,3.352-0.297,4.661,0.477c1.834,1.077,1.382,3.687,1.382,5.457c0,0.477-0.138,0.851-0.325,1.188
				c-0.01,0.023,0,0.033-0.01,0.053c-0.087,0.17-0.214,0.244-0.315,0.384c-0.051,0.043-0.081,0.122-0.137,0.162
				c-1.001,1.171-2.555,1.138-4.058,1.138c-2.229,0-4.453,0-6.683,0c-1.503,0-3.56,0.32-4.737-0.851
				C142.688,107.148,142.633,104.142,143.06,102.598z M136.58,128.295c-0.671,12.466-10.426,24.699-23.971,23.963
				c-12.469-0.671-24.699-10.431-23.97-23.963C90.302,97.408,134.919,97.408,136.58,128.295z"/>
		</g>
	</g>
</g>
<g>
</g>
<g>
</g>
<g>
</g>
<g>
</g>
<g>
</g>
<g>
</g>
<g>
</g>
<g>
</g>
<g>
</g>
<g>
</g>
<g>
</g>
<g>
</g>
<g>
</g>
<g>
</g>
<g>
</g>
</svg>
