<?xml version="1.0" encoding="iso-8859-1"?>
<!-- Generator: Adobe Illustrator 16.0.0, SVG Export Plug-In . SVG Version: 6.00 Build 0)  -->
<!DOCTYPE svg PUBLIC "-//W3C//DTD SVG 1.1//EN" "http://www.w3.org/Graphics/SVG/1.1/DTD/svg11.dtd">
<svg version="1.1" id="Capa_1" xmlns="http://www.w3.org/2000/svg" xmlns:xlink="http://www.w3.org/1999/xlink" x="0px" y="0px"
	 width="234.287px" height="234.288px" viewBox="0 0 234.287 234.288" style="enable-background:new 0 0 234.287 234.288;"
	 xml:space="preserve">
<g>
	<path d="M147.876,114.78c0-22.957-18.683-41.645-41.645-41.645S64.592,91.823,64.592,114.78c0,22.966,18.682,41.657,41.639,41.657
		C129.193,156.437,147.876,137.746,147.876,114.78z M106.231,145.971c-17.194,0-31.189-13.979-31.189-31.191
		c0-17.194,13.995-31.184,31.189-31.184c17.202,0,31.194,13.99,31.194,31.184C137.42,131.982,123.428,145.971,106.231,145.971z"/>
	<path d="M166.278,185.844l-31.991-31.997l9.206-9.206l31.991,31.996L166.278,185.844z"/>
	<path d="M173.829,0H26.928v234.288h180.431V32.504L173.829,0z M191.76,218.678H42.528V15.6h123.273v24.75h25.959V218.678z"/>
</g>
<g>
</g>
<g>
</g>
<g>
</g>
<g>
</g>
<g>
</g>
<g>
</g>
<g>
</g>
<g>
</g>
<g>
</g>
<g>
</g>
<g>
</g>
<g>
</g>
<g>
</g>
<g>
</g>
<g>
</g>
</svg>
